<svg xmlns="http://www.w3.org/2000/svg" viewBox="0 0 1280 213" width="1280" height="213">
  <defs>
    <pattern id="grid" width="32" height="32" patternUnits="userSpaceOnUse">
      <path d="M 32 0 L 0 0 0 32" fill="none" stroke="#0e2a1e" stroke-width="0.5"/>
    </pattern>
    <pattern id="scanlines" width="1280" height="4" patternUnits="userSpaceOnUse">
      <rect width="1280" height="2" fill="rgba(0,0,0,0.1)"/>
    </pattern>
    <filter id="glow">
      <feGaussianBlur stdDeviation="2" result="blur"/>
      <feMerge>
        <feMergeNode in="blur"/>
        <feMergeNode in="SourceGraphic"/>
      </feMerge>
    </filter>
    <filter id="glow-strong">
      <feGaussianBlur stdDeviation="4" result="blur"/>
      <feMerge>
        <feMergeNode in="blur"/>
        <feMergeNode in="SourceGraphic"/>
      </feMerge>
    </filter>
  </defs>

  <!-- Background -->
  <rect width="1280" height="213" fill="#0a0f0d"/>
  <rect width="1280" height="213" fill="url(#grid)"/>

  <!-- Ambient glow -->
  <ellipse cx="640" cy="100" rx="400" ry="80" fill="#00ff88" opacity="0.03"/>

  <!-- ===== CC LIVE pixel text (scaled to ~1/3) ===== -->
  <g filter="url(#glow)" transform="translate(130, 30)">
    <!-- Letter C (first) - 16px blocks -->
    <g fill="#00ff88">
      <rect x="0" y="16" width="16" height="16"/>
      <rect x="16" y="0" width="16" height="16"/>
      <rect x="32" y="0" width="16" height="16"/>
      <rect x="48" y="0" width="16" height="16"/>
      <rect x="64" y="16" width="16" height="16"/>

      <rect x="0" y="32" width="16" height="16"/>
      <rect x="0" y="48" width="16" height="16"/>
      <rect x="0" y="64" width="16" height="16"/>

      <rect x="0" y="80" width="16" height="16"/>
      <rect x="16" y="96" width="16" height="16"/>
      <rect x="32" y="96" width="16" height="16"/>
      <rect x="48" y="96" width="16" height="16"/>
      <rect x="64" y="80" width="16" height="16"/>
    </g>

    <!-- Letter C (second) -->
    <g fill="#00ff88">
      <rect x="106" y="16" width="16" height="16"/>
      <rect x="122" y="0" width="16" height="16"/>
      <rect x="138" y="0" width="16" height="16"/>
      <rect x="154" y="0" width="16" height="16"/>
      <rect x="170" y="16" width="16" height="16"/>

      <rect x="106" y="32" width="16" height="16"/>
      <rect x="106" y="48" width="16" height="16"/>
      <rect x="106" y="64" width="16" height="16"/>

      <rect x="106" y="80" width="16" height="16"/>
      <rect x="122" y="96" width="16" height="16"/>
      <rect x="138" y="96" width="16" height="16"/>
      <rect x="154" y="96" width="16" height="16"/>
      <rect x="170" y="80" width="16" height="16"/>
    </g>

    <!-- Letter L -->
    <g fill="#00ff88">
      <rect x="212" y="0" width="16" height="16"/>
      <rect x="212" y="16" width="16" height="16"/>
      <rect x="212" y="32" width="16" height="16"/>
      <rect x="212" y="48" width="16" height="16"/>
      <rect x="212" y="64" width="16" height="16"/>
      <rect x="212" y="80" width="16" height="16"/>
      <rect x="212" y="96" width="16" height="16"/>

      <rect x="228" y="96" width="16" height="16"/>
      <rect x="244" y="96" width="16" height="16"/>
      <rect x="260" y="96" width="16" height="16"/>
      <rect x="276" y="96" width="16" height="16"/>
    </g>

    <!-- Letter I -->
    <g fill="#00ff88">
      <rect x="318" y="0" width="16" height="16"/>
      <rect x="334" y="0" width="16" height="16"/>
      <rect x="350" y="0" width="16" height="16"/>

      <rect x="334" y="16" width="16" height="16"/>
      <rect x="334" y="32" width="16" height="16"/>
      <rect x="334" y="48" width="16" height="16"/>
      <rect x="334" y="64" width="16" height="16"/>
      <rect x="334" y="80" width="16" height="16"/>

      <rect x="318" y="96" width="16" height="16"/>
      <rect x="334" y="96" width="16" height="16"/>
      <rect x="350" y="96" width="16" height="16"/>
    </g>

    <!-- Letter V -->
    <g fill="#00ff88">
      <rect x="392" y="0" width="16" height="16"/>
      <rect x="392" y="16" width="16" height="16"/>
      <rect x="392" y="32" width="16" height="16"/>
      <rect x="392" y="48" width="16" height="16"/>

      <rect x="408" y="64" width="16" height="16"/>
      <rect x="424" y="80" width="16" height="16"/>
      <rect x="440" y="96" width="16" height="16"/>

      <rect x="456" y="80" width="16" height="16"/>
      <rect x="472" y="64" width="16" height="16"/>

      <rect x="488" y="48" width="16" height="16"/>
      <rect x="488" y="32" width="16" height="16"/>
      <rect x="488" y="16" width="16" height="16"/>
      <rect x="488" y="0" width="16" height="16"/>
    </g>

    <!-- Letter E -->
    <g fill="#00ff88">
      <rect x="530" y="0" width="16" height="16"/>
      <rect x="546" y="0" width="16" height="16"/>
      <rect x="562" y="0" width="16" height="16"/>
      <rect x="578" y="0" width="16" height="16"/>

      <rect x="530" y="16" width="16" height="16"/>
      <rect x="530" y="32" width="16" height="16"/>
      <rect x="546" y="32" width="16" height="16"/>
      <rect x="562" y="32" width="16" height="16"/>

      <rect x="530" y="48" width="16" height="16"/>
      <rect x="530" y="64" width="16" height="16"/>

      <rect x="530" y="80" width="16" height="16"/>
      <rect x="530" y="96" width="16" height="16"/>
      <rect x="546" y="96" width="16" height="16"/>
      <rect x="562" y="96" width="16" height="16"/>
      <rect x="578" y="96" width="16" height="16"/>
    </g>
  </g>

  <!-- LIVE red dot -->
  <rect x="950" y="40" width="14" height="14" fill="#ff3b3b" rx="2" filter="url(#glow)">
    <animate attributeName="opacity" values="1;0.2;1" dur="1.5s" repeatCount="indefinite"/>
  </rect>

  <!-- Subtitle -->
  <text x="640" y="170" text-anchor="middle" font-family="monospace" font-size="12" fill="#4a7a5a" letter-spacing="4">
    REAL-TIME VIEWER FOR CLAUDE CODE SESSIONS
  </text>

  <!-- Bottom signal waveform -->
  <g filter="url(#glow-strong)">
    <polyline
      points="0,190 30,190 50,185 70,190 90,190 110,185 130,178 150,185 170,190 190,190 210,185 230,178 250,170 270,178 290,185 310,190 330,190 350,185 370,190 390,190 410,185 430,178 450,170 470,162 490,170 510,178 530,185 550,190 570,190 590,185 610,178 630,170 650,162 670,155 690,162 710,170 730,178 750,185 770,190 790,190 810,185 830,190 850,190 870,185 890,178 910,170 930,162 950,155 970,162 990,170 1010,178 1030,185 1050,190 1070,190 1090,185 1110,190 1130,190 1150,185 1170,178 1190,185 1210,190 1230,190 1250,190 1280,190"
      fill="none" stroke="#00ff88" stroke-width="1.5" opacity="0.5"/>
    <polyline
      points="0,195 30,195 50,190 70,195 90,195 110,190 130,183 150,190 170,195 190,195 210,190 230,183 250,175 270,183 290,190 310,195 330,195 350,190 370,195 390,195 410,190 430,183 450,175 470,167 490,175 510,183 530,190 550,195 570,195 590,190 610,183 630,175 650,167 670,160 690,167 710,175 730,183 750,190 770,195 790,195 810,190 830,195 850,195 870,190 890,183 910,175 930,167 950,160 970,167 990,175 1010,183 1030,190 1050,195 1070,195 1090,190 1110,195 1130,195 1150,190 1170,183 1190,190 1210,195 1230,195 1250,195 1280,195"
      fill="none" stroke="#00ff88" stroke-width="0.8" opacity="0.25"/>
  </g>

  <!-- Scanline overlay -->
  <rect width="1280" height="213" fill="url(#scanlines)" opacity="0.2"/>

  <!-- Corner decorations -->
  <g stroke="#00ff88" stroke-width="1" opacity="0.15">
    <line x1="10" y1="10" x2="40" y2="10"/>
    <line x1="10" y1="10" x2="10" y2="40"/>
    <line x1="1270" y1="10" x2="1240" y2="10"/>
    <line x1="1270" y1="10" x2="1270" y2="40"/>
    <line x1="10" y1="203" x2="40" y2="203"/>
    <line x1="10" y1="203" x2="10" y2="173"/>
    <line x1="1270" y1="203" x2="1240" y2="203"/>
    <line x1="1270" y1="203" x2="1270" y2="173"/>
  </g>

  <!-- Floating code fragments -->
  <g font-family="monospace" font-size="9" opacity="0.1" fill="#00ff88">
    <text x="30" y="22">&gt; node server.js</text>
    <text x="1100" y="22">SSE stream connected</text>
    <text x="30" y="185">// watch AI code live</text>
    <text x="1100" y="185">zero deps ✓</text>
  </g>
</svg>
